PathFileType	4	(X/Y/Z)	7_2_82_p0_0-299.trc
DataRate	CameraRate	NumFrames	NumMarkers	Units	OrigDataRate	OrigDataStartFrame	OrigNumFrames
56.0	56.0	5	27	m	56.0	0	300
Frame#	Time	RHip			RKnee			RAnkle			RBigToe			RSmallToe			RHeel			LHip			LKnee			LAnkle			LBigToe			LSmallToe			LHeel			Neck			Head			Nose			RShoulder			RElbow			RWrist			RThumb			RIndex			RPinky			LShoulder			LElbow			LWrist			LThumb			LIndex			LPinky			
		X1	Y1	Z1	X2	Y2	Z2	X3	Y3	Z3	X4	Y4	Z4	X5	Y5	Z5	X6	Y6	Z6	X7	Y7	Z7	X8	Y8	Z8	X9	Y9	Z9	X10	Y10	Z10	X11	Y11	Z11	X12	Y12	Z12	X13	Y13	Z13	X14	Y14	Z14	X15	Y15	Z15	X16	Y16	Z16	X17	Y17	Z17	X18	Y18	Z18	X19	Y19	Z19	X20	Y20	Z20	X21	Y21	Z21	X22	Y22	Z22	X23	Y23	Z23	X24	Y24	Z24	X25	Y25	Z25	X26	Y26	Z26	X27	Y27	Z27	
0	0.0	0.29724687328392485	0.33747459388232764	1.2346493282659217	0.31940149618936753	0.3047211356143424	1.6045644181139684	0.2854266717153491	0.3272653394103452	2.0134059985363058	0.25853789447183523	0.12429983868190567	2.015153543855598	0.3268721993494877	0.1828720077617333	2.038497541005351	0.25834722123490944	0.35923889207702436	2.0879107573664264	0.09349646692607623	0.3584635040789567	1.2394110486698944	0.09550654869708551	0.32920479471300174	1.605424727002201	0.12441692484787924	0.34065175115774426	2.0385063118789795	0.10867043924258837	0.11232353920434347	2.0213254909226763	0.051559241316586034	0.18177779534978317	2.0221662092806185	0.1392418410771799	0.3649556351865938	2.09360845345653	0.18283141033254482	0.4033685187371718	0.6230124293369376	0.19920814704255424	0.40374444620708655	0.3686644290617998	0.19652145413229113	0.3182245108868622	0.49576073307841956	0.36889137943902534	0.38740771279987607	0.7215821665796508	0.41377343768322944	0.2514506650975342	0.9417298191424444	0.26296771914911843	0.12320496723977747	1.0703842219229325	0.21884654845971988	0.064711495565475	1.101139773432985	0.20715224258812215	0.046745628205420574	1.1217769661795174	0.21548827025376938	0.05256888998656924	1.158327107047686	0.02399042802283349	0.4039432734960322	0.7132128591362045	0.008797598085267682	0.25940764420747303	0.9519470126027224	0.1570824687395013	0.11080283296673153	1.0621795761754043	0.24780275054965642	0.0774592676680484	1.0764027252887747	0.2558810518173761	0.04147696558906987	1.093145364414018	0.2116089565214144	0.0392519676705814	1.149090068142168
1	0.017857142857142856	0.2978547176281598	0.33780923420509257	1.2395761388820852	0.3195991674911312	0.30474975987853364	1.604063619029801	0.2806866348885978	0.34377894441728213	2.020859674031983	0.25855863865290557	0.12470530937033182	2.0157539157481317	0.33044111836820766	0.19231162702598284	2.046023306559945	0.2588717470283177	0.36121469781914145	2.0780103805796992	0.09609678522093364	0.3688748936479083	1.248726904287665	0.09550178780588305	0.3291226603107181	1.6161039862763922	0.1238102489603693	0.3427580702599773	2.0346129398666197	0.10355901045324853	0.12664953952175742	2.027357911066472	0.04869911094084901	0.17123455995446502	2.0138131583369714	0.13961136924238707	0.3647911793101157	2.0832494551487377	0.1828950077961421	0.40348629069895375	0.6226972893615254	0.2027924993305071	0.3906557954935577	0.37005390222048185	0.193557251494866	0.309065780515985	0.493996570512904	0.3688447164190358	0.38753578044154646	0.721837329160981	0.4137409051104264	0.25124700237530206	0.9415936037915961	0.2628073949512929	0.12325108471688924	1.0701364166269263	0.217300244692593	0.06352654167935048	1.1013288771683356	0.2064384180376658	0.04546441857756194	1.1237909591533362	0.21331907112156479	0.05228225127679913	1.154197524860214	0.024015410297491054	0.40405230129303055	0.7131608916907016	0.0084058629386245	0.2591448851169145	0.9473814031490261	0.15715259194303272	0.11051432999269822	1.0621515542702342	0.2473074150138244	0.0754224062904116	1.0826189140979283	0.25930764972959913	0.028976007315293588	1.0876779413094844	0.21460183381702022	0.040981252863215425	1.1449315085670215
2	0.03571428571428571	0.2977946527738896	0.3377936266935667	1.2393307768752018	0.31956796561673007	0.3046296799586495	1.6040927577558926	0.28071590086062514	0.3437170518411412	2.0208591287979796	0.2585499700481669	0.12475141254570452	2.0155408074072154	0.3304241750878885	0.192319939783508	2.0458365929352706	0.2589306897977857	0.3610273281328107	2.0775399837176054	0.09616207294944222	0.3689143064741165	1.2489283465175898	0.09551198172954038	0.329090179500104	1.616215465613242	0.12379363956675835	0.34276754465009757	2.03476021869339	0.10504436250795796	0.1251210306399544	2.0367155856994965	0.048719251446586	0.17133135708246966	2.013870827276782	0.13961211017387598	0.36483850636283366	2.0834403700139252	0.1829145076211374	0.40348838537271575	0.6226773534116932	0.19908674878646362	0.40272264143121717	0.3718786651994215	0.1935345062771357	0.30908011747347414	0.4939291973927754	0.36830159467204154	0.38717338017792985	0.718114327391391	0.4138271976872106	0.2513786238454434	0.9415607792890418	0.2588094528531748	0.12149040844215475	1.0693374121561177	0.21745145466420723	0.06431083630488121	1.0976404197153764	0.20063686314591184	0.05550744877907391	1.119091801993049	0.21317813257161383	0.05162854997988096	1.1520365060840718	0.02407062517252261	0.4039860758386152	0.7131613619137441	0.008647155063514406	0.25813584953100754	0.9505320960221187	0.1571952303612815	0.1107405235467335	1.0620172726525305	0.24405091844827154	0.06613491569195787	1.0718810670025638	0.24892714357509088	0.029738799063933063	1.088960005124975	0.214584120915342	0.04102660071613453	1.1454268960388794
3	0.05357142857142857	0.29774388313724337	0.33780131342102937	1.2391617726809008	0.3195537456548975	0.3046528736030177	1.6038960629014098	0.28114106483904616	0.3420055577782049	2.0240728953249265	0.25860221550511125	0.12467397089674309	2.0159154411854017	0.33046170282357223	0.19227622980127385	2.0459657710283508	0.2596430399273068	0.35981377662084807	2.0825612239720446	0.09615467719053075	0.3687956685563391	1.2490827729620388	0.09628978996610887	0.32946099439390614	1.6116796481956774	0.1237501874273981	0.34284151037614163	2.03476610339484	0.10494625209649171	0.12500893010087497	2.0368247601765415	0.04874735865604441	0.1712391961440365	2.013788879127073	0.1397200463822468	0.3650514419548701	2.083429800275063	0.1829135567405441	0.40351871326438504	0.6227049916975479	0.19899655287589949	0.40328674143676485	0.3687007274107903	0.19355806854908741	0.30907776190172065	0.49391599306170064	0.3683486932272841	0.3872332993791434	0.7178584707392467	0.4138256001109923	0.25133042552385315	0.9414575307622212	0.2576953520799104	0.12254921704449745	1.061894917991284	0.2172142046215014	0.06423887612712634	1.0974811198163066	0.19997269226477515	0.055119462583354185	1.118694171283092	0.20817008865858774	0.049343065660796756	1.150347245800304	0.02879154127135136	0.39202556770584274	0.7097577086804122	0.008665071916456105	0.25822636706601815	0.9504313345812007	0.1568861770814955	0.11202337634110074	1.058397761736717	0.24441894249790522	0.06451372895378635	1.075079457644708	0.2523779942025211	0.019098276211223116	1.0839344736676348	0.2145567553278329	0.04085050432963	1.1442664269196896
4	0.07142857142857142	0.2964936441049387	0.33698579541095836	1.238578274120118	0.31959833387192343	0.3047155558973366	1.6038695540531887	0.2810891419329519	0.34191507642679086	2.0240542857320616	0.2583822041896592	0.12446501198768067	2.015109720450881	0.3267466797124525	0.18301626186148132	2.0379753465106387	0.259760724054781	0.3598984098114068	2.0826586965922695	0.09552459193142111	0.36827248312150257	1.244356114721592	0.0950275496465925	0.32665957318743744	1.6146923696158906	0.12376062076266355	0.34280493050614264	2.034671687614177	0.10511910979543432	0.12500531772789938	2.0365589338626653	0.04875360134436445	0.1712451822038264	2.0138382950549834	0.1397756077736924	0.3649878820945206	2.0831920602856377	0.18294391865408952	0.40350500542451834	0.6227625262656452	0.20271258973939144	0.39048334236567867	0.3700723092112577	0.19353531456357778	0.30909557213884403	0.49390856051392995	0.3688926200792655	0.38756744907135326	0.7218399518505422	0.4138384728212043	0.2512901449934265	0.9414562980613534	0.25750103650201656	0.12219107211900188	1.0613214310979149	0.21727575691153758	0.06423620100779122	1.0979320278771456	0.1998521329575363	0.05529387094737383	1.1191272435289634	0.2081721385598798	0.051662403395309135	1.1478774792697537	0.024124927680118105	0.4041289381668225	0.7132402611648115	0.00865446643734907	0.25816201894210933	0.9506397158200544	0.15687378876316108	0.1120129380588653	1.058452164963943	0.2449895944441574	0.06439911308432546	1.0788032916727677	0.2523339022979657	0.018757858238700773	1.0836907673846417	0.21458301435025212	0.04087471306373383	1.1443295122168213
